<svg xmlns="http://www.w3.org/2000/svg" version="1.1" xmlnsXlink="http://www.w3.org/1999/xlink" xmlnssvgjs="http://svgjs.com/svgjs"  x="0" y="0" viewBox="0 0 512 512" xmlSpace="preserve">
    <g>
        <g xmlns="http://www.w3.org/2000/svg">
            <g>
                <path d="m425.825 276.444c0 51.899-28.537 99.15-23.838 134.615-36.436 39.751-88.79 64.675-146.956 64.675s-110.52-24.924-146.956-64.675c-32.504-35.465-5.294-82.716-5.294-134.615s-27.21-99.15 5.294-134.615c36.436-39.751 88.79-64.675 146.956-64.675s110.52 24.924 146.956 64.675c0 59.781 23.838 82.716 23.838 134.615z" fill="#c8effe">
                </path>
                <path d="m298.397 470.993c-13.968 3.103-28.482 4.74-43.379 4.74-58.156 0-110.51-24.924-146.956-64.675-32.494-35.465-5.28-82.716-5.28-134.615s-27.214-99.15 5.28-134.615c36.446-39.751 88.8-64.675 146.956-64.675 14.898 0 29.411 1.637 43.379 4.74-40.559 8.995-76.47 30.361-103.576 59.934-32.504 35.465-52.334 82.716-52.334 134.615s19.83 99.15 52.334 134.615c27.106 29.575 63.016 50.941 103.576 59.936z" fill="#99e6fc">
                </path>
                <path d="m251.464 309.908v.384c0 18.476-14.979 33.464-33.464 33.464h-20.972c-15.342 0-28.269 10.319-32.231 24.398-.798 2.88-1.233 5.913-1.233 9.056v.384c0 18.486-14.979 33.464-33.454 33.464h-22.033c-32.504-35.465-52.334-82.716-52.334-134.615s19.83-99.15 52.334-134.615h42.581c12.836 0 23.994 7.237 29.593 17.859 2.466 4.659 3.861 9.965 3.861 15.605v.384c0 9.238-3.75 17.606-9.794 23.65-5.276 5.276-12.28 8.793-20.103 9.612-1.162.131-2.355.192-3.558.192-18.486 0-33.464 14.989-33.464 33.464v.384c0 15.666 10.764 28.815 25.298 32.464 2.618.657 5.347 1.001 8.166 1.001h67.343c18.485.001 33.464 14.98 33.464 33.465z" fill="#9be69d">
                </path>
                <path d="m142.49 276.444c0 33.08 8.055 64.26 22.306 91.711-.798 2.88-1.233 5.913-1.233 9.056v.384c0 18.486-14.979 33.464-33.454 33.464h-22.033c-32.504-35.465-52.334-82.716-52.334-134.615s19.83-99.15 52.334-134.615h42.581c12.836 0 23.994 7.237 29.593 17.859-10.845 14.979-19.658 31.534-26.036 49.251-1.162.131-2.355.192-3.558.192-18.486 0-33.464 14.989-33.464 33.464v.384c0 15.666 10.764 28.815 25.298 32.464z" fill="#6fd7a3">
                </path>
                <path d="m454.321 276.444c0 51.899-19.83 99.15-52.334 134.615h-46.775c-18.435 0-33.383-14.948-33.383-33.383v-.536c0-18.435 14.948-33.383 33.383-33.383h21.952c18.445 0 33.393-14.948 33.393-33.393v-.536c0-18.435-14.948-33.383-33.393-33.383h-4.568c-18.435 0-33.383-14.948-33.383-33.383v-.536c0-18.445-14.948-33.394-33.383-33.394-9.218 0-17.566-3.74-23.61-9.784-6.044-6.034-9.784-14.382-9.784-23.6v-.536c0-18.435 14.948-33.383 33.394-33.383h96.158c32.503 35.465 52.333 82.716 52.333 134.615z" fill="#9be69d">
                </path>
                <path d="m257.405 426.295c0 10.298-6.36 19.111-15.374 22.712-2.807 1.131-5.871 1.748-9.078 1.748-13.505 0-24.461-10.955-24.461-24.461 0-.553.016-1.099.064-1.636.834-12.744 11.444-22.816 24.396-22.816 13.506 0 24.453 10.948 24.453 24.453z" fill="#9be69d">
                </path>
                <path d="m242.031 449.007c-2.807 1.131-5.871 1.748-9.078 1.748-13.505 0-24.461-10.955-24.461-24.461 0-.553.016-1.099.064-1.636 10.25 9.232 21.47 17.404 33.475 24.349z" fill="#6fd7a3">
                </path>
            </g>
            <g className="last-loader-item">
                <path d="m495.488 36.266h-137.978c-9.119 0-16.511 7.393-16.511 16.512v87.854c0 9.119 7.393 16.512 16.511 16.512h17.383l-4.912 24.078c-1.446 7.088 5.937 12.71 12.385 9.432l65.903-33.509h47.219c9.119 0 16.512-7.393 16.512-16.512v-87.855c0-9.119-7.392-16.512-16.512-16.512z" fill="#e8edf2">
                </path>
                <path d="m374.451 157.148h-16.938c-9.121 0-16.514-7.394-16.514-16.514v-87.856c0-9.11 7.394-16.504 16.514-16.504h16.938c-9.121 0-16.514 7.394-16.514 16.504v87.855c0 9.121 7.393 16.515 16.514 16.515z" fill="#d9e7ec">
                </path>
            </g>
            <g className="second-loader-item">
                <path d="m367.386 258.174h-137.978c-9.119 0-16.511 7.393-16.511 16.512v87.854c0 9.119 7.393 16.512 16.511 16.512h17.383l-4.912 24.078c-1.446 7.088 5.937 12.711 12.385 9.432l65.903-33.509h47.219c9.119 0 16.512-7.393 16.512-16.512v-87.854c0-9.12-7.393-16.513-16.512-16.513z" fill="#ffe177">
                </path>
                <path d="m246.349 379.056h-16.939c-9.121 0-16.514-7.394-16.514-16.514v-87.855c0-9.11 7.394-16.504 16.514-16.504h16.938c-9.121 0-16.514 7.394-16.514 16.504v87.855c0 9.12 7.394 16.514 16.515 16.514z" fill="#ffd15b">
                </path>
            </g>
            <g className="first-loader-item">
                <path d="m16.512 180.502h137.978c9.119 0 16.511 7.393 16.511 16.512v87.854c0 9.119-7.393 16.512-16.511 16.512h-17.383l4.912 24.078c1.446 7.088-5.937 12.711-12.385 9.432l-65.903-33.509h-47.219c-9.12-.002-16.512-7.394-16.512-16.513v-87.854c0-9.12 7.392-16.512 16.512-16.512z" fill="#fe646f">
                </path>
                <path d="m33.453 301.383h-16.939c-9.12 0-16.514-7.394-16.514-16.515v-87.855c0-9.11 7.394-16.504 16.514-16.504h16.938c-9.121 0-16.514 7.394-16.514 16.504v87.855c0 9.121 7.394 16.515 16.515 16.515z" fill="#fd4755">
                </path>
            </g>
            <g>
                <path d="m117.132 269.126-23-60.948c-.027-.071-.055-.142-.084-.213-1.415-3.435-4.726-5.653-8.441-5.653-.003 0-.007 0-.01 0-3.718.004-7.03 2.23-8.438 5.671-.024.058-.047.117-.069.176l-23.212 60.945c-1.519 3.988.482 8.452 4.47 9.971.905.345 1.835.508 2.749.508 3.113 0 6.048-1.896 7.222-4.978l3.886-10.202h26.628l3.842 10.18c1.506 3.992 5.963 6.008 9.957 4.501 3.992-1.507 6.007-5.965 4.5-9.958zm-39.042-20.177 7.49-19.665 7.421 19.665z" fill="#e8edf2">
                </path>
                <path d="m338.626 287.157h-30.807v-9.45c0-4.267-3.459-7.727-7.727-7.727-4.267 0-7.727 3.459-7.727 7.727v9.45h-34.199c-4.267 0-7.727 3.459-7.727 7.727s3.459 7.727 7.727 7.727h50.18c-.836 5.721-2.992 14.165-8.475 22.913-2.439-3.917-4.431-8.113-5.941-12.597-1.364-4.044-5.747-6.216-9.79-4.854-4.044 1.363-6.217 5.746-4.854 9.79 2 5.935 5.209 12.937 10.329 20.024-4.141 3.87-9.148 7.567-15.256 10.855-3.757 2.022-5.164 6.708-3.141 10.465 1.395 2.593 4.058 4.066 6.81 4.066 1.236 0 2.49-.297 3.655-.925 7.239-3.896 13.246-8.266 18.242-12.859 4.962 4.585 10.943 8.969 18.171 12.859 1.165.627 2.419.924 3.655.924 2.752 0 5.415-1.473 6.811-4.066 2.022-3.758.615-8.443-3.142-10.466-5.774-3.108-10.849-6.701-15.224-10.755 9.727-13.412 12.801-27.007 13.733-35.375h14.697c4.267 0 7.727-3.459 7.727-7.727s-3.459-7.726-7.727-7.726z" fill="#7bacdf">
                </path>
                <path d="m472.589 119.457c-9.217 0-16.716-9.226-16.716-20.565s7.499-20.565 16.716-20.565c4.267 0 7.727-3.459 7.727-7.727 0-4.267-3.459-7.727-7.727-7.727-15.369 0-28.247 12.133-31.415 28.291h-4.564v-24.926c0-4.267-3.459-7.727-7.727-7.727-4.267 0-7.727 3.459-7.727 7.727v24.927h-4.45c-3.205-17.124-18.257-30.128-36.297-30.128-4.267 0-7.727 3.459-7.727 7.727 0 4.267 3.459 7.727 7.727 7.727 11.846 0 21.483 9.637 21.483 21.483s-9.637 21.484-21.483 21.484c-4.267 0-7.727 3.459-7.727 7.727 0 4.267 3.459 7.727 7.727 7.727 17.389 0 32.001-12.083 35.905-28.292h4.842v20.565c0 4.267 3.459 7.727 7.727 7.727 4.267 0 7.727-3.459 7.727-7.727v-20.565h4.564c3.168 16.158 16.047 28.292 31.415 28.292 4.267 0 7.727-3.459 7.727-7.727s-3.46-7.728-7.727-7.728z" fill="#e49280">
                </path>
            </g>
        </g>
    </g>
</svg>